<?xml version="1.0" encoding="utf-8"?>
<!-- Generator: Adobe Illustrator 17.1.0, SVG Export Plug-In . SVG Version: 6.00 Build 0)  -->
<!DOCTYPE svg PUBLIC "-//W3C//DTD SVG 1.1//EN" "http://www.w3.org/Graphics/SVG/1.1/DTD/svg11.dtd">
<svg version="1.1" id="Layer_1" xmlns="http://www.w3.org/2000/svg" xmlns:xlink="http://www.w3.org/1999/xlink" x="0px" y="0px"
	 viewBox="0 283.7 1600 632.6" enable-background="new 0 283.7 1600 632.6" xml:space="preserve">
<g>
	<path fill="#4F71B6" d="M163.7,384.1h-25.6v41.2h25.6c11.6,0,21.3-9.1,21.3-21.3C184.9,392.7,175.2,384.1,163.7,384.1z"/>
	<path fill="#4F71B6" d="M0,283.7v310.1h310.1V283.7H0z M166.4,464.6h-28.3v63.2c0,2.7-2.4,5.1-5.1,5.1h-31.8c-3,0-5.1-2.4-5.1-5.1
		V349.7c0-2.7,2.2-5.1,5.1-5.1H166c33.1,0,60.3,26.9,60.3,59.5C226.4,437.4,199.2,464.6,166.4,464.6z"/>
</g>
<path fill="#4F71B6" d="M322.5,283.7v310.1h310.1V283.7H322.5z M539.4,527.8c0,2.7-2.2,5.1-5.1,5.1H433.1c-3,0-5.1-2.4-5.1-5.1
	V349.7c0-2.7,2.2-5.1,5.1-5.1h32c2.7,0,5.1,2.4,5.1,5.1v143.7h64c3,0,5.1,2.4,5.1,5.1v29.3H539.4z"/>
<g>
	<polygon fill="#4F71B6" points="799.7,423.8 779.5,468.2 820.5,468.2 800,423.8 	"/>
	<path fill="#4F71B6" d="M645,283.7v310.1h310V283.7H645z M885.6,532.8h-29.9c-4.8,0-7-1.6-9.4-6.7l-9.7-21.3h-73.2l-9.7,21.5
		c-1.3,3.2-4.3,6.5-9.7,6.5h-29.6c-4,0-6.2-3.5-4.6-7L794,344.7c0.8-1.6,2.7-3,4.6-3h2.7c1.9,0,3.8,1.3,4.6,3l84.2,181.1
		C891.8,529.3,889.6,532.8,885.6,532.8z"/>
</g>
<path fill="#4F71B6" d="M967.4,283.7v310.1h310.1V283.7H967.4z M1203.5,352.4l-60.3,89.6v85.8c0,2.7-2.4,5.1-5.1,5.1h-32
	c-3,0-5.1-2.4-5.1-5.1v-85.6l-59.5-89.9c-2.2-3.5,0-7.8,4.3-7.8h35c2.2,0,3.5,1.3,4.3,2.4l37.4,55.2l37.4-55.2
	c0.8-1.1,1.9-2.4,4.3-2.4h35C1203.5,344.6,1205.6,348.9,1203.5,352.4z"/>
<g>
	<path fill="#4F71B6" d="M163.7,706.6h-25.6v41.2h25.6c11.6,0,21.3-9.2,21.3-21.3C184.9,715.2,175.2,706.6,163.7,706.6z"/>
	<path fill="#4F71B6" d="M0,606.2v310.1h310.1V606.2H0z M166.4,787.1h-28.3v63.2c0,2.7-2.4,5.1-5.1,5.1h-31.8c-3,0-5.1-2.4-5.1-5.1
		V672.2c0-2.7,2.2-5.1,5.1-5.1H166c33.1,0,60.3,26.9,60.3,59.5C226.4,759.9,199.2,787.1,166.4,787.1z"/>
</g>
<g>
	<path fill="#4F71B6" d="M493.7,705.5h-39.8v42h39.8c11,0,20.4-10.2,20.4-21.5C514.1,714.7,504.7,705.5,493.7,705.5z"/>
	<path fill="#4F71B6" d="M322.5,606.2v310.1h310.1V606.2H322.5z M552.9,847.6c1.9,3.5,0,7.8-4.6,7.8h-35.8c-2.2,0-3.8-1.3-4.3-2.4
		l-35.8-71.3h-18.6v68.6c0,2.7-2.4,5.1-5.1,5.1h-32c-3,0-5.1-2.4-5.1-5.1V672.2c0-2.7,2.2-5.1,5.1-5.1h80.5
		c32.3,0,58.7,26.1,58.7,58.1c0,24.8-16.4,44.7-39.8,54.1L552.9,847.6z"/>
</g>
<path fill="#4F71B6" d="M645,606.2v310.1h310V606.2H645z M860.8,701.5c0,2.7-2.2,5.1-5.1,5.1h-74.5V740h61.4c2.7,0,5.1,2.4,5.1,5.1
	v29.3c0,3-2.4,5.1-5.1,5.1h-61.4v36.3h74.5c3,0,5.1,2.4,5.1,5.1v29.3c0,2.7-2.2,5.1-5.1,5.1H744.3c-3,0-5.1-2.4-5.1-5.1v-178
	c0-2.7,2.2-5.1,5.1-5.1h111.4c3,0,5.1,2.4,5.1,5.1V701.5L860.8,701.5z"/>
<path fill="#4F71B6" d="M967.4,606.2v310.1h310.1V606.2H967.4z M1125.4,858.1c-35,0-54.4-14.5-60.5-20.7c-2.7-2.7-3.5-3.8-1.3-7.5
	l12.6-22.3c2.2-3.5,7.3-3,9.2-1.6c1.1,0.5,20.4,14.8,38.2,14.8c10.8,0,18.6-6.7,18.6-16.1c0-11.3-9.4-19.9-27.7-27.2
	c-23.1-9.2-52.2-27.2-52.2-59.5c0-26.6,20.7-53.5,62.2-53.5c28,0,49.5,14.3,57.6,20.2c3.2,1.9,2.7,6.7,1.6,8.6L1170,714
	c-1.9,3-6.7,5.4-9.1,3.5c-2.4-1.3-22.1-16.1-38.5-16.1c-9.7,0-17,6.5-17,13.7c0,10,8.1,17.5,29.3,26.1c21,8.3,54.4,24.8,54.4,61.4
	C1189,830.1,1165,858.1,1125.4,858.1z"/>
<path fill="#4F71B6" d="M1289.9,606.2v310.1H1600V606.2H1289.9z M1447.9,858.1c-35,0-54.4-14.5-60.5-20.7c-2.7-2.7-3.5-3.8-1.3-7.5
	l12.6-22.3c2.2-3.5,7.3-3,9.2-1.6c1.1,0.5,20.4,14.8,38.2,14.8c10.8,0,18.6-6.7,18.6-16.1c0-11.3-9.4-19.9-27.7-27.2
	c-23.1-9.2-52.2-27.2-52.2-59.5c0-26.6,20.7-53.5,62.2-53.5c28,0,49.5,14.3,57.6,20.2c3.2,1.9,2.7,6.7,1.6,8.6l-13.7,20.7
	c-1.9,3-6.7,5.4-9.1,3.5c-2.4-1.3-22.1-16.1-38.5-16.1c-9.7,0-17,6.5-17,13.7c0,10,8.1,17.5,29.3,26.1c21,8.3,54.4,24.8,54.4,61.4
	C1511.4,830.1,1487.5,858.1,1447.9,858.1z"/>
<g>
	<path fill="#4F71B6" d="M1513.3,415.4c-33.1,12.4-40.4-22.1-40.4-22.1c-16.7,51.5-78.5,26.8-88.6,22.4c-1.9,7.5-2.2,13.1-2.2,13.8
		c-2.8,49.2,23.3,67.7,24.4,68.5l0.8,0.7c0.1,0.1,11.3,11.2,41.6,11.2l0,0c30.3,0,41.6-11.2,41.7-11.3l0.8-0.6
		c1.1-0.8,27.2-19.3,24.4-68.4C1515.6,428.8,1515.3,423.1,1513.3,415.4z M1424.2,451.6c-6.9-6.9-13.5-0.7-14.2,0l-4.4-4.4
		c4-4,13.9-9.1,23,0L1424.2,451.6z M1464.7,480.6c-3.6,14-15,13.6-15,13.6s-11.4,0.5-15-13.6c0,0-0.4-1.2,1-1.1h14h14
		C1465.1,479.5,1464.7,480.6,1464.7,480.6z M1489.3,451.6c-6.9-6.9-13.5-0.7-14.2,0l-4.4-4.4c4-4,13.9-9.1,23,0L1489.3,451.6z"/>
	<path fill="#4F71B6" d="M1289.9,283.7v310.1H1600V283.7H1289.9z M1496.8,505.4c-2.5,2.4-16.2,13.8-48,13.8s-45.5-11.4-48-13.8
		c-3.8-2.7-31-24.4-28.1-76.3c0.7-24.1,17.5-69.8,76.1-69.8s75.4,45.8,76.1,70C1527.8,481,1500.6,502.7,1496.8,505.4z"/>
</g>
</svg>
