<?xml version="1.0" encoding="utf-8"?>
<!-- Generator: Adobe Illustrator 17.1.0, SVG Export Plug-In . SVG Version: 6.00 Build 0)  -->
<!DOCTYPE svg PUBLIC "-//W3C//DTD SVG 1.1//EN" "http://www.w3.org/Graphics/SVG/1.1/DTD/svg11.dtd">
<svg version="1.1" id="Layer_1" xmlns="http://www.w3.org/2000/svg" xmlns:xlink="http://www.w3.org/1999/xlink" x="0px" y="0px"
	 viewBox="0 0 800 600" enable-background="new 0 0 800 600" xml:space="preserve">
<g>
	<path fill="#FFFFFF" d="M81.831,192.068H69.048v20.585h12.783c5.786,0,10.629-4.575,10.629-10.629
		C92.46,196.374,87.617,192.068,81.831,192.068z"/>
	<path fill="#FFFFFF" d="M0,141.86v155.039h155.039V141.86H0z M83.177,232.296H69.048v31.617c0,1.347-1.211,2.557-2.555,2.557
		H50.616c-1.478,0-2.555-1.211-2.555-2.557v-89.068c0-1.347,1.076-2.557,2.555-2.557H83.04c16.55,0,30.138,13.454,30.138,29.735
		C113.178,218.707,99.591,232.296,83.177,232.296z"/>
</g>
<path fill="#FFFFFF" d="M161.24,141.86v155.039h155.039V141.86H161.24z M269.712,263.913c0,1.347-1.076,2.557-2.557,2.557h-50.589
	c-1.481,0-2.557-1.211-2.557-2.557v-89.068c0-1.347,1.076-2.557,2.557-2.557h16.012c1.347,0,2.557,1.211,2.557,2.557v71.847h32.02
	c1.481,0,2.557,1.211,2.557,2.557V263.913z"/>
<g>
	<polygon fill="#FFFFFF" points="399.867,211.905 389.775,234.105 410.226,234.105 400,211.905 	"/>
	<path fill="#FFFFFF" d="M322.481,141.86v155.039h155.039V141.86H322.481z M442.785,266.397h-14.933
		c-2.423,0-3.499-0.808-4.71-3.363l-4.843-10.629h-36.597l-4.843,10.764c-0.673,1.614-2.152,3.229-4.843,3.229h-14.802
		c-2.019,0-3.095-1.749-2.287-3.498l42.112-90.55c0.405-0.806,1.347-1.479,2.287-1.479h1.347c0.943,0,1.882,0.673,2.287,1.479
		l42.115,90.55C445.881,264.648,444.805,266.397,442.785,266.397z"/>
</g>
<path fill="#FFFFFF" d="M483.721,141.86v155.039H638.76V141.86H483.721z M601.738,176.189L571.6,220.994v42.919
	c0,1.347-1.211,2.557-2.557,2.557h-16.009c-1.481,0-2.557-1.211-2.557-2.557V221.13l-29.733-44.94c-1.076-1.749,0-3.901,2.154-3.901
	h17.49c1.076,0,1.749,0.671,2.154,1.211l18.699,27.581l18.702-27.583c0.402-0.538,0.94-1.211,2.152-1.211h17.49
	C601.738,172.288,602.814,174.442,601.738,176.189z"/>
<g>
	<path fill="#FFFFFF" d="M81.831,353.309H69.048v20.585h12.783c5.786,0,10.629-4.575,10.629-10.629
		C92.46,357.614,87.617,353.309,81.831,353.309z"/>
	<path fill="#FFFFFF" d="M0,303.101V458.14h155.039V303.101H0z M83.177,393.536H69.048v31.617c0,1.347-1.211,2.557-2.555,2.557
		H50.616c-1.478,0-2.555-1.211-2.555-2.557v-89.068c0-1.347,1.076-2.557,2.555-2.557H83.04c16.55,0,30.138,13.454,30.138,29.733
		C113.178,379.947,99.591,393.536,83.177,393.536z"/>
</g>
<g>
	<path fill="#FFFFFF" d="M246.839,352.769h-19.913v20.989h19.913c5.516,0,10.225-5.115,10.225-10.764
		C257.064,357.343,252.354,352.769,246.839,352.769z"/>
	<path fill="#FFFFFF" d="M161.24,303.101V458.14h155.039V303.101H161.24z M276.439,423.809c0.94,1.749,0,3.901-2.29,3.901h-17.895
		c-1.076,0-1.882-0.673-2.152-1.211l-17.895-35.656h-9.284v34.309c0,1.347-1.212,2.557-2.557,2.557h-16.011
		c-1.478,0-2.555-1.211-2.555-2.557v-89.068c0-1.347,1.076-2.557,2.555-2.557h40.229c16.146,0,29.332,13.05,29.332,29.062
		c0,12.378-8.209,22.335-19.915,27.043L276.439,423.809z"/>
</g>
<path fill="#FFFFFF" d="M322.481,303.101V458.14h155.039V303.101H322.481z M430.406,350.75c0,1.346-1.076,2.557-2.555,2.557H390.58
	v16.684h30.679c1.344,0,2.555,1.211,2.555,2.555v14.667c0,1.479-1.211,2.555-2.555,2.555H390.58v18.163h37.271
	c1.478,0,2.555,1.211,2.555,2.557v14.665c0,1.347-1.076,2.557-2.555,2.557h-55.704c-1.478,0-2.555-1.211-2.555-2.557v-89.068
	c0-1.347,1.076-2.557,2.555-2.557h55.704c1.478,0,2.555,1.211,2.555,2.557V350.75z"/>
<path fill="#FFFFFF" d="M483.721,303.101V458.14H638.76V303.101H483.721z M562.724,429.057c-17.49,0-27.177-7.265-30.273-10.361
	c-1.347-1.344-1.75-1.882-0.674-3.767l6.324-11.167c1.076-1.75,3.634-1.479,4.575-0.808c0.538,0.27,10.225,7.4,19.104,7.4
	c5.381,0,9.285-3.364,9.285-8.073c0-5.653-4.71-9.958-13.859-13.589c-11.572-4.575-26.104-13.589-26.104-29.735
	c0-13.319,10.36-26.774,31.081-26.774c13.992,0,24.757,7.132,28.792,10.09c1.617,0.943,1.347,3.364,0.808,4.305l-6.862,10.361
	c-0.94,1.479-3.363,2.691-4.574,1.75c-1.212-0.673-11.034-8.073-19.24-8.073c-4.843,0-8.477,3.229-8.477,6.86
	c0,4.978,4.037,8.746,14.665,13.051c10.496,4.171,27.18,12.378,27.18,30.676C594.476,415.064,582.502,429.057,562.724,429.057z"/>
<path fill="#FFFFFF" d="M644.961,303.101V458.14H800V303.101H644.961z M723.964,429.057c-17.49,0-27.177-7.265-30.273-10.361
	c-1.347-1.344-1.75-1.882-0.674-3.767l6.324-11.167c1.076-1.75,3.634-1.479,4.575-0.808c0.538,0.27,10.225,7.4,19.104,7.4
	c5.381,0,9.285-3.364,9.285-8.073c0-5.653-4.71-9.958-13.859-13.589c-11.572-4.575-26.104-13.589-26.104-29.735
	c0-13.319,10.36-26.774,31.081-26.774c13.992,0,24.757,7.132,28.792,10.09c1.617,0.943,1.347,3.364,0.808,4.305l-6.862,10.361
	c-0.94,1.479-3.363,2.691-4.574,1.75c-1.212-0.673-11.034-8.073-19.24-8.073c-4.843,0-8.477,3.229-8.477,6.86
	c0,4.978,4.037,8.746,14.665,13.051c10.496,4.171,27.18,12.378,27.18,30.676C755.716,415.064,743.743,429.057,723.964,429.057z"/>
<g>
	<path fill="#FFFFFF" d="M756.633,207.681c-16.561,6.212-20.198-11.036-20.198-11.036c-8.354,25.749-39.25,13.408-44.318,11.184
		c-0.972,3.75-1.091,6.544-1.102,6.91c-1.397,24.584,11.64,33.873,12.195,34.257l0.389,0.333c0.037,0.037,5.664,5.623,20.808,5.623
		v0.003c15.149,0,20.775-5.588,20.831-5.645l0.38-0.321c0.547-0.377,13.58-9.665,12.186-34.188
		C757.791,214.414,757.657,211.527,756.633,207.681z M712.082,225.816c-3.456-3.456-6.746-0.363-7.11,0l-2.192-2.192
		c1.988-1.989,6.95-4.544,11.495,0L712.082,225.816z M732.361,240.313c-1.811,7.023-7.513,6.78-7.513,6.78s-5.702,0.243-7.51-6.78
		c0,0-0.211-0.588,0.518-0.56l6.992-0.005l6.998,0.005C732.572,239.726,732.361,240.313,732.361,240.313z M744.64,225.816
		c-3.456-3.456-6.746-0.363-7.11,0l-2.192-2.192c1.989-1.989,6.95-4.544,11.495,0L744.64,225.816z"/>
	<path fill="#FFFFFF" d="M644.961,141.86v155.039H800V141.86H644.961z M748.416,252.705c-1.247,1.186-8.084,6.901-24.009,6.901
		c-15.921-0.003-22.758-5.716-24.003-6.899c-1.882-1.366-15.512-12.191-14.036-38.167c0.352-12.037,8.755-34.922,38.039-34.922
		c29.287,0,37.691,22.887,38.043,34.986C763.922,240.519,750.298,251.341,748.416,252.705z"/>
</g>
</svg>
